<?xml version="1.0" standalone="no"?>
<!DOCTYPE svg PUBLIC "-//W3C//DTD SVG 20010904//EN"
 "http://www.w3.org/TR/2001/REC-SVG-20010904/DTD/svg10.dtd">
<svg version="1.0" xmlns="http://www.w3.org/2000/svg"
 width="400.000000pt" height="400.000000pt" viewBox="0 0 400.000000 400.000000"
 preserveAspectRatio="xMidYMid meet">

<g transform="translate(0.000000,400.000000) scale(0.100000,-0.100000)"
fill="#000000" stroke="none">
<path d="M0 2942 l0 -1059 40 2 c25 1 40 -2 40 -10 0 -8 15 -11 40 -10 35 2
40 -1 40 -19 0 -17 -2 -18 -10 -6 -9 13 -10 13 -10 0 0 -9 -3 -11 -8 -5 -4 6
-14 10 -22 10 -8 -1 -21 3 -29 9 -7 6 -29 11 -47 11 l-34 1 0 -483 c0 -417 2
-483 15 -483 22 0 55 -41 55 -68 0 -15 -14 -37 -35 -58 l-35 -33 0 -165 c0
-142 2 -166 15 -166 9 0 18 -7 21 -15 5 -11 21 -15 59 -15 69 0 105 -14 105
-40 0 -11 7 -20 15 -20 8 0 15 -4 15 -9 0 -18 43 -20 66 -3 13 9 24 20 24 24
0 4 11 19 25 34 13 14 22 30 19 35 -7 12 26 24 35 12 3 -5 15 -10 26 -10 11
-1 47 -5 81 -9 75 -8 114 11 114 56 0 16 7 35 15 43 8 8 11 18 7 22 -4 5 1 5
10 2 9 -3 19 -1 22 6 2 7 4 -68 4 -166 0 -98 -2 -176 -6 -173 -3 3 -10 2 -16
-2 -6 -5 -40 -16 -76 -26 -36 -10 -72 -21 -80 -25 -8 -5 -58 -18 -110 -31 -52
-12 -108 -28 -125 -35 -16 -7 -45 -16 -64 -20 -19 -4 -43 -16 -55 -26 -19 -19
19 -19 1917 -19 l1937 0 0 288 0 288 -142 18 c-99 12 -158 25 -195 41 -29 14
-63 27 -77 31 -13 3 -33 17 -45 30 -22 26 -27 39 -11 29 6 -3 10 -2 10 4 0 5
-4 13 -10 16 -5 3 -10 17 -10 31 0 17 -5 24 -19 24 -11 0 -23 -5 -26 -10 -10
-17 -33 -11 -40 10 -4 11 -11 18 -16 15 -5 -4 -9 10 -9 29 0 28 4 36 18 36 14
0 15 2 2 10 -21 13 -6 12 24 -1 20 -9 29 -9 41 1 8 7 18 10 21 7 4 -3 25 3 47
14 37 19 52 20 206 15 91 -3 181 -9 199 -12 l32 -5 0 69 0 69 -37 7 c-21 3
-58 6 -82 6 -53 0 -314 37 -358 51 -42 13 -51 26 -59 86 l-6 52 42 11 c42 11
145 10 398 -6 l102 -7 0 65 c0 51 -4 67 -16 72 -9 3 -62 6 -119 6 -57 0 -137
4 -177 10 -40 5 -118 11 -173 14 -96 4 -100 6 -109 29 -11 30 -21 32 -258 48
-180 11 -225 19 -220 39 4 20 -20 84 -37 98 -13 11 0 12 79 7 52 -3 170 -8
263 -12 l167 -6 0 31 c0 27 -4 31 -37 36 -21 3 -118 8 -215 12 -98 3 -206 10
-240 14 -35 4 -65 6 -67 4 -2 -2 4 -19 13 -38 25 -53 19 -110 -11 -99 -13 5
-15 -1 -9 -39 5 -35 3 -48 -9 -58 -21 -18 -31 -5 -11 15 20 20 20 20 0 50 -9
14 -12 25 -8 25 16 0 13 64 -4 99 -22 45 -34 48 -51 10 -9 -20 -17 -27 -23
-21 -7 7 -2 22 13 44 30 41 42 50 50 36 4 -7 9 -7 13 1 7 11 -6 15 -33 12 -7
-2 -10 2 -7 7 3 6 -2 8 -13 5 -11 -3 -17 -11 -15 -18 3 -7 -2 -19 -10 -28 -9
-9 -16 -20 -16 -25 0 -4 -16 -31 -35 -58 -32 -44 -35 -46 -29 -19 4 17 16 40
26 52 11 12 17 26 14 32 -4 5 3 16 14 24 16 11 20 24 18 51 -1 21 -5 39 -9 41
-10 7 -66 -39 -62 -52 2 -6 -1 -14 -6 -18 -15 -9 -14 17 2 47 7 14 18 23 27
20 9 -3 6 5 -8 20 -12 13 -19 28 -15 31 3 4 5 103 4 219 -1 198 -3 214 -21
230 -11 9 -20 19 -20 23 0 11 -49 55 -61 55 -14 0 -49 38 -49 54 0 8 -5 18
-10 21 -6 4 -8 11 -4 16 3 5 -4 25 -16 44 -14 23 -23 55 -24 92 -2 40 -8 60
-21 69 -10 7 -22 11 -26 8 -5 -3 -6 2 -3 10 3 9 12 16 20 16 10 0 14 14 14 49
0 41 4 53 25 69 23 18 25 27 25 95 0 44 5 79 11 83 6 3 19 25 29 48 19 44 77
117 64 80 -6 -15 0 -13 23 9 32 30 38 48 52 167 l8 65 1 -52 c1 -29 7 -53 12
-53 6 0 10 46 10 118 0 66 3 174 7 240 l6 122 26 0 c42 0 663 79 669 85 13 13
-10 14 -89 5 -171 -20 -357 -41 -471 -52 -65 -6 -118 -16 -118 -20 0 -5 -4 -6
-10 -3 -6 4 -10 53 -10 116 l0 109 -1350 0 -1350 0 0 -1058z m2309 453 c7 -44
18 -86 24 -93 16 -20 34 -515 19 -520 -7 -2 -10 -14 -6 -30 5 -22 -5 -14 -56
41 -81 88 -177 137 -272 137 l-38 0 0 163 c0 177 9 299 20 292 13 -8 80 24 80
38 0 8 24 18 58 25 91 18 96 19 108 3 9 -11 13 -8 25 17 17 39 22 29 38 -73z
m-1630 -745 c0 -338 1 -623 1 -632 0 -11 8 -18 20 -18 11 0 20 -5 20 -11 0 -5
-4 -8 -8 -5 -22 13 -36 -16 -39 -81 -3 -60 -7 -71 -31 -91 -15 -13 -39 -25
-54 -29 -16 -3 -28 -11 -28 -17 0 -7 -14 -10 -40 -8 -27 3 -40 0 -40 -8 0 -15
-73 -9 -150 14 -30 8 -40 13 -22 11 28 -4 38 1 71 37 22 23 42 55 45 72 8 48
8 232 -2 436 -9 211 4 779 20 819 l10 26 10 -25 c7 -18 12 -21 16 -10 3 8 14
21 24 30 10 8 24 26 31 40 10 20 21 26 59 28 46 3 47 3 51 -30 2 -18 5 1 6 42
0 41 4 86 8 100 17 57 21 -97 22 -690z m1162 668 c1 -40 2 -41 9 -13 6 26 8
22 15 -34 7 -60 9 -62 21 -40 12 22 13 16 14 -56 0 -44 3 -117 7 -162 4 -61 3
-83 -6 -83 -7 0 -28 -16 -48 -35 -20 -19 -53 -39 -73 -45 -37 -10 -80 -43 -80
-61 0 -6 -11 -24 -25 -40 -13 -16 -22 -36 -19 -44 4 -8 1 -15 -5 -15 -6 0 -11
-6 -11 -14 0 -8 -7 -16 -15 -20 -10 -4 -15 -20 -15 -53 0 -29 -4 -43 -9 -35
-11 18 -45 -34 -36 -56 5 -14 9 -12 21 11 8 15 16 27 18 27 11 0 -1 -120 -14
-135 -8 -10 -13 -30 -12 -46 5 -39 -19 -101 -35 -95 -9 4 -13 -5 -13 -28 0
-20 -8 -40 -20 -51 -11 -10 -19 -23 -17 -29 3 -10 -6 -16 -78 -55 l-30 -15 25
-6 c14 -3 26 -10 27 -17 2 -9 -4 -10 -20 -4 -12 5 -34 4 -51 -2 l-29 -10 24
-13 c23 -13 23 -13 -8 -8 -17 3 -39 1 -50 -6 -16 -10 -14 -11 10 -5 15 3 27 1
27 -5 0 -5 -11 -10 -24 -10 -14 0 -28 -5 -31 -10 -4 -6 -10 -8 -15 -5 -5 3 -7
-6 -4 -19 4 -23 2 -24 -24 -17 -30 9 -52 -5 -44 -28 3 -10 -2 -11 -18 -6 -15
5 -20 3 -16 -3 3 -6 2 -13 -4 -17 -5 -3 -10 -2 -10 4 0 6 -8 8 -17 4 -15 -5
-16 -3 -5 8 22 24 13 29 -21 9 -35 -21 -128 -23 -135 -2 -2 6 -11 8 -20 5 -12
-4 -14 -3 -7 5 6 6 21 12 35 15 16 3 10 5 -17 6 -34 1 -41 -2 -37 -14 4 -8 2
-15 -2 -15 -15 1 -44 27 -37 33 3 4 -7 7 -23 8 -36 1 -71 14 -58 21 17 10 100
20 85 10 -9 -7 -4 -11 20 -16 92 -17 99 -14 101 47 l2 52 3 -47 c4 -49 14 -57
43 -37 12 9 11 10 -7 6 -23 -5 -23 -4 -25 116 -1 103 -3 113 -8 62 l-7 -60 3
70 c2 39 5 102 8 140 4 54 3 60 -3 25 -6 -31 -8 8 -9 125 -1 182 5 268 19 259
5 -3 23 8 40 25 17 17 35 31 40 31 5 0 9 4 9 9 0 12 59 71 71 71 5 0 9 6 9 13
0 7 9 18 20 25 12 7 25 24 30 37 9 24 40 35 40 15 0 -5 8 -10 18 -10 13 0 22
12 31 40 10 34 16 40 40 40 32 0 71 34 49 43 -7 3 -2 6 12 6 25 1 68 25 82 45
5 7 8 7 8 -1 0 -20 40 -15 41 5 1 9 2 22 4 27 1 6 3 16 3 23 1 6 12 12 25 12
16 0 18 3 9 9 -10 6 -2 13 28 25 22 9 43 23 46 31 4 9 19 15 40 15 19 0 34 4
34 9 0 5 11 12 25 15 15 4 27 16 31 31 10 39 24 29 25 -17z m554 -568 c3 -5 1
-10 -4 -10 -6 0 -11 5 -11 10 0 6 2 10 4 10 3 0 8 -4 11 -10z m-393 -11 c13
-5 33 -24 43 -40 11 -17 51 -56 89 -87 103 -85 139 -169 137 -321 -1 -75 -8
-91 -42 -91 -12 0 -15 7 -12 23 7 35 -23 60 -62 53 -23 -5 -39 -1 -58 14 -14
11 -30 20 -36 20 -6 0 -11 5 -11 10 0 6 -8 10 -17 10 -13 0 -14 -3 -5 -12 7
-7 12 -19 12 -27 0 -15 -6 -17 -77 -22 -47 -3 -62 5 -57 28 9 34 -16 29 -53
-12 -18 -19 -39 -35 -47 -35 -23 0 -38 36 -31 73 6 29 10 33 42 35 20 2 45 8
56 14 16 8 23 7 33 -7 12 -17 14 -16 24 9 5 15 10 34 10 42 0 23 18 16 36 -15
16 -27 20 -29 77 -25 65 5 108 21 87 34 -8 5 -3 10 14 14 40 10 36 50 -6 64
l-33 10 35 1 c26 1 31 4 22 13 -7 7 -42 12 -85 12 -79 1 -137 -21 -137 -52 0
-12 -3 -13 -8 -5 -11 18 -76 43 -110 43 l-29 0 1 65 c1 42 5 66 13 70 7 2 13
11 13 18 0 8 31 26 70 42 39 15 70 32 70 37 0 10 4 10 32 -3z m428 -120 c0
-11 -4 -18 -10 -14 -5 3 -7 12 -3 20 7 21 13 19 13 -6z m-1527 -134 c3 -56 2
-73 -2 -45 -7 40 -8 36 -11 -40 -2 -47 -5 -73 -7 -58 -2 14 -10 31 -16 37 -17
14 -9 101 9 101 10 0 14 14 14 52 0 79 7 53 13 -47z m907 -15 c0 -5 -7 -10
-16 -10 -8 0 -12 5 -9 10 3 6 10 10 16 10 5 0 9 -4 9 -10z m230 -244 c0 -3 -4
-8 -10 -11 -5 -3 -10 -1 -10 4 0 6 5 11 10 11 6 0 10 -2 10 -4z m-110 -46 c0
-5 -4 -10 -10 -10 -5 0 -10 5 -10 10 0 6 5 10 10 10 6 0 10 -4 10 -10z m110 0
c0 -12 -65 -24 -87 -16 -15 6 -15 8 -3 16 20 13 90 13 90 0z m-145 -46 c9 -14
19 -23 23 -20 3 3 16 -1 28 -9 15 -10 43 -14 80 -13 45 2 59 -1 68 -15 13 -21
1 -31 -54 -47 -64 -18 -106 -13 -129 16 -12 15 -21 35 -21 44 0 10 -7 23 -15
30 -16 14 -20 40 -6 40 5 0 16 -12 26 -26z m130 6 c-3 -5 -21 -10 -40 -10 -19
0 -37 5 -40 10 -4 6 12 10 40 10 28 0 44 -4 40 -10z m-555 -70 c0 -5 -5 -10
-11 -10 -5 0 -7 5 -4 10 3 6 8 10 11 10 2 0 4 -4 4 -10z m-70 -10 c0 -5 -10
-10 -22 -9 -22 0 -22 1 -3 9 11 5 21 9 23 9 1 1 2 -3 2 -9z m-611 -65 c-9 -9
-23 -13 -33 -9 -14 5 -15 9 -4 15 7 5 22 9 33 9 17 0 18 -2 4 -15z m551 -11
c0 -2 -9 -4 -20 -4 -11 0 -20 4 -20 9 0 5 9 7 20 4 11 -3 20 -7 20 -9z m176 1
c-11 -8 -24 -15 -30 -15 -5 0 -1 7 10 15 10 8 24 14 29 14 6 0 1 -6 -9 -14z
m-106 -4 c0 -5 -7 -11 -14 -14 -10 -4 -13 -1 -9 9 6 15 23 19 23 5z m20 -31
c0 -5 -2 -10 -4 -10 -3 0 -8 5 -11 10 -3 6 -1 10 4 10 6 0 11 -4 11 -10z m85
-15 c-20 -15 -40 -24 -42 -21 -6 5 57 46 71 46 5 0 -8 -11 -29 -25z m125 1 c0
-30 46 -76 76 -76 13 0 29 9 36 20 16 25 26 25 58 0 22 -17 23 -19 7 -25 -18
-8 -24 -55 -7 -55 6 0 24 10 40 21 16 12 35 19 42 15 40 -21 61 -36 51 -36 -7
0 -13 -5 -13 -10 0 -6 12 -9 28 -8 16 2 26 -2 25 -9 -3 -12 41 -29 87 -35 20
-2 28 4 42 34 27 56 50 64 77 27 17 -22 20 -37 16 -63 -6 -28 -4 -34 12 -33
58 0 60 -1 78 -65 9 -34 17 -78 17 -97 0 -20 5 -39 11 -43 7 -4 -11 -29 -46
-64 -31 -32 -60 -54 -64 -50 -5 5 12 26 37 47 30 26 39 39 28 39 -10 0 -25 -8
-35 -19 -10 -10 -29 -24 -43 -31 -24 -13 -25 -12 -7 7 23 26 22 33 -8 33 -13
0 -28 -8 -34 -17 -8 -15 -11 -15 -26 -3 -14 12 -21 11 -46 -4 -38 -22 -50 -13
-18 13 l24 19 -29 8 c-19 5 -31 2 -37 -7 -8 -13 -13 -6 -10 14 0 4 -7 7 -17 7
-10 0 -33 11 -52 25 -19 14 -42 25 -52 25 -10 0 -18 6 -18 14 0 21 -52 39 -82
27 -33 -13 -46 -1 -16 15 l23 12 -28 11 c-16 6 -40 8 -55 5 -26 -6 -26 -6 -7
9 20 16 20 16 -2 17 -18 0 -23 6 -23 25 0 19 -4 23 -17 19 -17 -5 -17 -5 -1 5
11 8 15 20 12 39 -3 15 -6 35 -7 45 -1 9 -4 17 -7 17 -11 0 -76 -43 -102 -68
-16 -14 -28 -21 -28 -14 0 13 50 52 98 76 39 20 43 41 6 32 -17 -5 -23 -3 -19
4 3 5 13 10 21 10 17 0 18 9 4 44 -9 24 -13 25 -53 20 -26 -4 -47 -2 -50 4 -4
5 15 12 44 16 39 5 49 10 45 21 -3 8 -1 15 4 15 6 0 10 -11 10 -24z m-268 -8
c-7 -7 -12 -8 -12 -2 0 6 3 14 7 17 3 4 9 5 12 2 2 -3 -1 -11 -7 -17z m-118
-2 c27 -13 27 -14 4 -19 -20 -6 -37 6 -38 26 0 10 4 9 34 -7z m23 8 c-3 -3
-12 -4 -19 -1 -8 3 -5 6 6 6 11 1 17 -2 13 -5z m461 -32 c5 -17 -27 -27 -41
-13 -9 9 -8 14 3 21 18 11 32 8 38 -8z m-468 -12 c-8 -5 -19 -10 -25 -10 -5 0
-3 5 5 10 8 5 20 10 25 10 6 0 3 -5 -5 -10z m107 4 c-3 -3 -12 -4 -19 -1 -8 3
-5 6 6 6 11 1 17 -2 13 -5z m83 1 c0 -2 -9 -9 -20 -15 -16 -9 -18 -8 -14 5 5
13 34 22 34 10z m50 -10 c-7 -9 -15 -13 -19 -10 -3 3 1 10 9 15 21 14 24 12
10 -5z m-303 -1 c-3 -3 -12 -4 -19 -1 -8 3 -5 6 6 6 11 1 17 -2 13 -5z m158
-43 c-16 -32 -35 -49 -35 -31 0 14 32 59 43 60 4 0 1 -13 -8 -29z m240 19 c-3
-5 -11 -10 -16 -10 -6 0 -7 5 -4 10 3 6 11 10 16 10 6 0 7 -4 4 -10z m-375
-10 c0 -5 -4 -10 -10 -10 -5 0 -10 5 -10 10 0 6 5 10 10 10 6 0 10 -4 10 -10z
m222 -44 c-15 -24 -28 -43 -30 -41 -7 6 41 94 49 90 4 -3 -4 -25 -19 -49z
m117 50 c-2 -1 -20 -8 -39 -14 -32 -11 -33 -10 -16 3 16 12 69 23 55 11z
m-379 -16 c0 -5 -9 -10 -19 -10 -11 0 -28 -2 -38 -5 -10 -3 -4 1 12 9 36 18
45 19 45 6z m85 1 c-6 -5 -21 -11 -35 -15 -21 -5 -20 -3 5 9 35 17 42 18 30 6z
m135 -29 c0 -5 -9 -17 -20 -27 -23 -21 -26 -14 -8 15 13 20 28 27 28 12z m150
-17 c-19 -14 -36 -25 -39 -25 -2 0 6 11 19 25 13 14 30 25 39 25 8 0 0 -11
-19 -25z m1070 18 c0 -5 -9 -19 -20 -33 l-20 -25 12 33 c11 28 28 44 28 25z
m-1139 -20 c-15 -26 -51 -69 -51 -62 0 7 18 43 33 67 13 19 29 15 18 -5z
m-328 0 c-7 -2 -21 -2 -30 0 -10 3 -4 5 12 5 17 0 24 -2 18 -5z m897 -14 c0
-6 -7 -8 -16 -5 -9 4 -23 1 -30 -5 -11 -9 -14 -8 -14 5 0 11 9 16 30 16 17 0
30 -5 30 -11z m636 -18 c-9 -10 -16 -25 -16 -34 0 -9 -4 -19 -10 -22 -6 -4
-10 5 -10 21 0 30 27 67 42 58 5 -3 2 -14 -6 -23z m-1390 3 c-5 -13 -1 -15 19
-10 14 4 25 2 25 -4 0 -5 -9 -10 -21 -10 -11 0 -29 -5 -40 -10 -23 -13 -24 -2
-3 28 18 26 29 29 20 6z m1274 0 c0 -2 -7 -4 -15 -4 -8 0 -15 4 -15 10 0 5 7
7 15 4 8 -4 15 -8 15 -10z m-1413 -10 c-3 -3 -12 -4 -19 -1 -8 3 -5 6 6 6 11
1 17 -2 13 -5z m328 -31 c-28 -20 -41 -16 -20 7 10 11 22 17 28 13 6 -4 3 -12
-8 -20z m-85 9 c0 -8 -43 -32 -55 -32 -14 0 -2 18 18 28 28 13 37 14 37 4z
m-280 -22 c-19 -13 -30 -13 -30 0 0 6 10 10 23 10 18 0 19 -2 7 -10z m1430 0
c0 -5 -5 -10 -11 -10 -5 0 -7 5 -4 10 3 6 8 10 11 10 2 0 4 -4 4 -10z m-975
-19 c-3 -6 -14 -11 -23 -11 -15 1 -15 2 2 15 21 16 32 13 21 -4z m-390 -1 c-3
-5 -14 -10 -23 -10 -15 0 -15 2 -2 10 20 13 33 13 25 0z m245 -9 c0 -13 -70
-64 -78 -56 -4 4 8 20 26 36 32 29 52 37 52 20z m-120 -11 c0 -5 -6 -13 -13
-17 -8 -4 -24 -23 -37 -40 -28 -38 -41 -36 -16 2 37 56 66 80 66 55z m290 0
c0 -5 -5 -10 -11 -10 -5 0 -7 5 -4 10 3 6 8 10 11 10 2 0 4 -4 4 -10z m-440
-30 c-39 -7 -45 -5 -36 8 3 5 20 6 38 3 l33 -5 -35 -6z m495 0 c-3 -5 -13 -10
-21 -10 -8 0 -12 5 -9 10 3 6 13 10 21 10 8 0 12 -4 9 -10z m1125 1 c0 -14
-38 -57 -45 -50 -9 10 17 59 32 59 7 0 13 -4 13 -9z m-1570 -16 c-7 -8 -17
-15 -22 -15 -11 0 14 29 26 30 5 0 3 -7 -4 -15z m-50 -9 c0 -3 -4 -8 -10 -11
-5 -3 -10 -1 -10 4 0 6 5 11 10 11 6 0 10 -2 10 -4z m264 -20 c-3 -9 -10 -16
-15 -16 -6 0 -5 9 1 21 13 24 24 20 14 -5z m1171 14 c-3 -5 -16 -10 -28 -10
-18 0 -19 2 -7 10 20 13 43 13 35 0z m110 -10 c-10 -11 -20 -18 -23 -15 -7 6
18 35 31 35 5 0 2 -9 -8 -20z m-1405 -30 c-46 -41 -76 -54 -48 -22 8 9 24 27
34 40 10 12 28 22 39 22 16 -1 11 -8 -25 -40z m180 20 c0 -5 -5 -10 -11 -10
-5 0 -7 5 -4 10 3 6 8 10 11 10 2 0 4 -4 4 -10z m-270 -23 c0 -1 -11 -3 -25
-3 -24 -2 -32 6 -19 19 6 5 44 -9 44 -16z m430 17 c0 -5 -64 -34 -77 -34 -4 0
6 9 22 19 30 19 55 26 55 15z m1094 -17 c-6 -16 -64 -61 -70 -55 -2 2 9 19 24
36 27 32 56 43 46 19z m-1364 -6 c0 -12 -20 -25 -27 -18 -7 7 6 27 18 27 5 0
9 -4 9 -9z m340 0 c0 -13 -68 -53 -82 -49 -7 3 6 16 27 31 42 29 55 33 55 18z
m898 -3 c-5 -16 -48 -24 -48 -10 0 11 17 20 38 21 8 1 12 -5 10 -11z m180 -14
c2 -14 1 -15 -6 -6 -7 10 -11 10 -22 -3 -21 -25 -32 -17 -13 10 20 28 37 27
41 -1z m-958 6 c8 -5 13 -10 10 -10 -39 -6 -100 -9 -100 -6 0 3 15 10 33 15
42 12 40 12 57 1z m830 1 c0 -5 -7 -14 -15 -21 -12 -10 -15 -10 -15 2 0 8 3
18 7 21 9 10 23 9 23 -2z m-1150 -15 c0 -7 -18 -25 -40 -40 -50 -33 -52 -19
-3 23 41 35 43 36 43 17z m-295 -6 c-28 -12 -37 -12 -30 0 3 6 16 10 28 9 21
0 21 -1 2 -9z m400 1 c-15 -14 -85 -41 -85 -33 0 4 17 15 38 24 42 19 61 23
47 9z m-295 -5 c0 -3 -4 -8 -10 -11 -5 -3 -10 -1 -10 4 0 6 5 11 10 11 6 0 10
-2 10 -4z m80 -5 c0 -5 -6 -12 -12 -14 -10 -4 -10 -8 0 -15 10 -7 3 -13 -27
-26 -48 -18 -51 -19 -51 -8 0 5 12 14 26 21 15 6 24 15 20 18 -3 3 2 12 12 19
20 16 32 17 32 5z m-87 -21 c26 0 20 -5 -15 -14 -23 -5 -25 -4 -20 16 3 12 7
17 10 10 2 -6 13 -12 25 -12z m417 10 c0 -12 -42 -31 -50 -23 -6 5 30 33 42
33 4 0 8 -5 8 -10z m-580 -25 c0 -7 -7 -15 -15 -19 -15 -5 -22 24 -9 37 9 9
24 -2 24 -18z m660 15 c-18 -12 -30 -13 -30 -2 0 4 10 9 22 9 18 2 20 0 8 -7z
m57 4 c-3 -3 -12 -4 -19 -1 -8 3 -5 6 6 6 11 1 17 -2 13 -5z m63 -4 c0 -5 -9
-10 -20 -10 -11 0 -20 5 -20 10 0 6 9 10 20 10 11 0 20 -4 20 -10z m-160 -10
c0 -5 -5 -10 -11 -10 -5 0 -7 5 -4 10 3 6 8 10 11 10 2 0 4 -4 4 -10z m-136
-29 c-16 -10 -40 -15 -53 -13 -23 5 -23 6 -6 19 11 7 27 11 36 8 10 -3 20 -1
24 5 3 6 11 7 17 4 5 -3 -3 -14 -18 -23z m926 19 c0 -5 -5 -10 -11 -10 -5 0
-7 5 -4 10 3 6 8 10 11 10 2 0 4 -4 4 -10z m70 6 c0 -2 -7 -7 -16 -10 -8 -3
-12 -2 -9 4 6 10 25 14 25 6z m70 -6 c0 -5 -4 -10 -10 -10 -5 0 -10 5 -10 10
0 6 5 10 10 10 6 0 10 -4 10 -10z m50 1 c0 -5 -7 -14 -15 -21 -16 -14 -18 -10
-9 14 6 17 24 22 24 7z m-1550 -30 c-6 -12 -20 -21 -33 -21 -20 1 -20 2 6 16
15 8 27 20 27 26 0 6 3 9 6 6 3 -4 1 -16 -6 -27z m686 3 c3 -17 -4 -24 -34
-33 -20 -7 -43 -15 -49 -17 -7 -3 -13 1 -13 10 0 9 7 16 15 16 13 0 39 12 65
28 2 2 -2 8 -10 13 -12 8 -12 10 4 7 10 -2 20 -12 22 -24z m486 4 c-6 -6 -15
-8 -19 -4 -4 4 -1 11 7 16 19 12 27 3 12 -12z m29 -15 c-10 -17 -10 -16 -11 3
0 23 13 41 18 25 2 -6 -1 -18 -7 -28z m-575 18 c-9 -14 -66 -32 -66 -20 0 10
35 27 58 28 7 1 11 -3 8 -8z m134 -1 c0 -5 -10 -10 -22 -10 -19 0 -20 2 -8 10
19 13 30 13 30 0z m499 -25 c-22 -37 -39 -53 -39 -36 0 9 48 71 56 71 2 0 -6
-16 -17 -35z m-1211 3 c-16 -23 -58 -44 -58 -28 0 6 7 10 15 10 8 0 20 9 27
20 7 11 17 20 22 20 4 0 2 -10 -6 -22z m258 13 c-7 -11 -83 -51 -96 -51 -6 0
-10 5 -10 10 0 6 6 10 14 10 8 0 24 9 37 20 24 19 65 28 55 11z m168 -10 c-26
-22 -104 -60 -104 -50 0 8 -4 8 -15 -1 -8 -7 -15 -8 -15 -2 0 13 27 35 37 29
4 -3 28 5 53 18 42 22 65 25 44 6z m966 -1 c-6 -11 -16 -20 -22 -20 -6 0 -3 9
7 20 10 11 20 20 22 20 2 0 -1 -9 -7 -20z m132 -2 c-7 -7 -12 -8 -12 -2 0 14
12 26 19 19 2 -3 -1 -11 -7 -17z m-1235 -10 c-3 -8 -6 -5 -6 6 -1 11 2 17 5
13 3 -3 4 -12 1 -19z m-157 4 c0 -5 -11 -14 -25 -20 -26 -12 -33 -4 -13 16 14
14 38 16 38 4z m950 -2 c0 -5 -4 -10 -10 -10 -5 0 -10 5 -10 10 0 6 5 10 10
10 6 0 10 -4 10 -10z m230 6 c0 -2 -8 -10 -17 -17 -16 -13 -17 -12 -4 4 13 16
21 21 21 13z m-1280 -31 c-7 -8 -17 -15 -23 -15 -5 0 -2 9 8 20 21 23 35 19
15 -5z m445 14 c-9 -14 -162 -88 -169 -81 -4 3 -17 -5 -31 -18 -14 -13 -27
-21 -31 -18 -3 3 10 20 28 36 18 18 35 27 39 21 3 -6 34 7 75 30 68 40 101 51
89 30z m970 2 c-16 -14 -55 -23 -55 -12 0 9 20 17 50 20 8 1 10 -2 5 -8z m115
-12 c-7 -11 -14 -18 -17 -15 -8 8 5 36 17 36 7 0 7 -6 0 -21z m423 0 l157 -12
0 -52 c0 -29 2 -72 5 -96 10 -74 10 -73 -176 -55 -90 9 -173 18 -184 20 -11 3
-33 5 -50 5 -23 1 -27 3 -15 11 12 8 11 11 -8 16 -23 6 -23 7 -3 21 22 15 18
45 -4 36 -9 -3 -16 4 -20 20 -5 19 -12 25 -30 23 -13 -1 -31 -8 -39 -16 -20
-16 -20 -1 -1 36 18 35 12 43 -15 19 -27 -24 -26 -1 1 26 23 23 42 23 382 -2z
m-1243 -3 c0 -8 -10 -18 -22 -22 -13 -4 -34 -15 -47 -25 -13 -10 -27 -16 -32
-13 -14 8 -2 22 36 40 19 9 35 20 35 25 0 5 7 9 15 9 8 0 15 -6 15 -14z m105
3 c-4 -5 -18 -14 -31 -19 -14 -6 -22 -15 -18 -23 6 -17 -48 -42 -72 -33 -22 8
-11 20 53 57 51 28 79 36 68 18z m655 3 c0 -12 -28 -34 -72 -56 -42 -21 -49
-36 -16 -36 12 0 19 -2 16 -5 -9 -9 -150 -46 -156 -41 -7 8 63 36 88 36 13 0
20 7 20 18 0 22 25 47 57 56 11 4 27 13 33 21 14 16 30 20 30 7z m-1937 -41
c8 -8 1 -21 -26 -48 -20 -21 -49 -53 -63 -70 -14 -18 -29 -33 -34 -33 -8 0
-19 156 -13 176 5 14 118 -7 136 -25z m247 29 c0 -5 -5 -10 -11 -10 -5 0 -7 5
-4 10 3 6 8 10 11 10 2 0 4 -4 4 -10z m90 -5 c0 -8 -7 -15 -16 -15 -14 0 -14
3 -4 15 7 8 14 15 16 15 2 0 4 -7 4 -15z m350 1 c0 -18 -17 -29 -30 -21 -8 5
-7 11 1 21 15 18 29 18 29 0z m658 2 c-6 -18 -57 -53 -65 -44 -5 4 6 19 22 32
33 26 49 31 43 12z m202 -6 c0 -11 -41 -34 -48 -27 -4 4 2 13 12 21 22 15 36
18 36 6z m94 -41 c-31 -44 -52 -55 -33 -18 15 28 51 68 57 63 2 -3 -9 -23 -24
-45z m326 15 c0 -5 -3 -6 -7 -3 -3 4 -15 -1 -26 -10 -18 -17 -18 -17 -1 14 17
29 33 28 34 -1z m-1470 14 c0 -5 -4 -10 -10 -10 -5 0 -10 5 -10 10 0 6 5 10
10 10 6 0 10 -4 10 -10z m440 5 c0 -2 -14 -12 -31 -20 -40 -21 -63 -13 -24 8
29 16 55 22 55 12z m110 -5 c0 -13 -34 -30 -62 -30 -22 0 -21 1 7 19 33 22 55
26 55 11z m712 -12 c-7 -7 -12 -8 -12 -2 0 14 12 26 19 19 2 -3 -1 -11 -7 -17z
m-1382 2 c0 -5 -5 -10 -11 -10 -5 0 -7 5 -4 10 3 6 8 10 11 10 2 0 4 -4 4 -10z
m265 -11 c-8 -12 -35 -12 -35 0 0 11 22 20 33 14 4 -2 5 -9 2 -14z m955 0 c0
-5 -7 -9 -15 -9 -9 0 -12 6 -9 15 6 15 24 11 24 -6z m-1139 -16 c-8 -15 -10
-15 -11 -2 0 17 10 32 18 25 2 -3 -1 -13 -7 -23z m914 0 c-11 -7 -22 -13 -27
-13 -14 0 -8 19 9 29 25 13 40 1 18 -16z m-785 7 c0 -5 -4 -10 -10 -10 -5 0
-10 5 -10 10 0 6 5 10 10 10 6 0 10 -4 10 -10z m840 0 c0 -5 -4 -10 -10 -10
-5 0 -10 5 -10 10 0 6 5 10 10 10 6 0 10 -4 10 -10z m85 -40 c-16 -16 -32 -27
-37 -24 -6 4 5 22 23 41 19 18 35 29 37 23 3 -7 -8 -25 -23 -40z m479 25 c-17
-26 -24 -31 -24 -16 0 10 28 41 36 41 2 0 -3 -11 -12 -25z m-1654 5 c0 -5 -2
-10 -4 -10 -3 0 -8 5 -11 10 -3 6 -1 10 4 10 6 0 11 -4 11 -10z m80 0 c0 -11
-42 -31 -49 -24 -5 5 30 33 42 34 4 0 7 -5 7 -10z m124 1 c6 -10 -22 -37 -29
-29 -8 7 5 38 15 38 5 0 11 -4 14 -9z m396 0 c0 -6 -27 -23 -60 -40 -33 -17
-60 -26 -60 -21 0 5 18 19 39 30 22 11 42 24 46 30 8 13 35 13 35 1z m550 -1
c0 -13 -49 -44 -57 -37 -3 4 5 15 18 26 27 23 39 26 39 11z m-1220 -15 c-7 -8
-20 -15 -29 -15 -13 1 -13 3 3 15 26 19 42 19 26 0z m560 2 c0 -16 -66 -54
-76 -45 -3 4 11 18 33 32 46 30 43 29 43 13z m-160 -7 c0 -5 -7 -10 -16 -10
-8 0 -12 5 -9 10 3 6 10 10 16 10 5 0 9 -4 9 -10z m583 -16 c-25 -20 -95 -51
-133 -59 -51 -11 -28 9 37 33 32 12 67 28 78 36 25 18 42 9 18 -10z m682 6
c-10 -11 -21 -17 -24 -14 -3 3 3 12 13 20 28 20 32 17 11 -6z m-1330 0 c3 -5
2 -10 -4 -10 -5 0 -13 5 -16 10 -3 6 -2 10 4 10 5 0 13 -4 16 -10z m415 0 c0
-13 -28 -25 -38 -16 -3 4 0 11 8 16 20 13 30 12 30 0z m106 -5 c-22 -17 -46
-20 -46 -6 0 11 18 19 45 20 20 0 20 0 1 -14z m221 0 c-15 -8 -40 -23 -54 -35
-39 -31 -51 -11 -12 21 20 17 46 29 64 29 l30 0 -28 -15z m767 -1 c5 -13 4
-14 -7 -6 -10 9 -17 8 -25 0 -13 -13 -27 -4 -17 11 10 17 42 13 49 -5z m-1841
-9 c-3 -9 -8 -14 -10 -11 -3 3 -2 9 2 15 9 16 15 13 8 -4z m1147 6 c0 -11 -57
-49 -155 -101 -118 -64 -169 -89 -180 -90 -20 0 76 61 185 118 41 22 86 49
100 61 26 21 50 27 50 12z m-994 -16 c-11 -8 -26 -15 -33 -15 -7 0 -13 -5 -13
-12 0 -6 -3 -8 -7 -5 -11 11 29 47 51 47 21 -1 21 -1 2 -15z m306 -2 c3 -13
-1 -18 -16 -19 -12 0 -29 -4 -38 -8 -33 -15 -19 10 15 26 17 8 33 16 33 17 1
0 4 -7 6 -16z m328 8 c0 -11 -56 -41 -77 -41 -25 0 -13 17 25 33 45 19 52 20
52 8z m480 -20 c-9 -18 -39 -35 -47 -28 -2 2 6 16 18 31 23 29 45 26 29 -3z
m47 -6 c-19 -19 -27 -19 -27 0 0 17 33 38 38 24 2 -5 -3 -16 -11 -24z m373 29
c0 -8 -43 -43 -54 -44 -5 0 2 11 15 24 24 24 39 32 39 20z m-1005 -15 c-4 -6
-10 -8 -13 -5 -3 3 -11 1 -19 -5 -8 -8 -13 -8 -13 -1 0 11 16 20 38 21 7 1 10
-4 7 -10z m685 1 c0 -5 -5 -10 -11 -10 -5 0 -7 5 -4 10 3 6 8 10 11 10 2 0 4
-4 4 -10z m240 0 c0 -5 -5 -10 -11 -10 -5 0 -7 5 -4 10 3 6 8 10 11 10 2 0 4
-4 4 -10z m124 -6 c3 -8 2 -12 -4 -9 -6 3 -10 1 -10 -6 0 -7 -3 -10 -6 -6 -7
6 2 37 10 37 2 0 7 -7 10 -16z m89 -25 c-20 -33 -33 -37 -33 -10 0 11 9 23 20
26 11 4 17 11 14 17 -4 7 -2 8 5 4 8 -5 7 -15 -6 -37z m-1760 0 c-21 -35 -41
-54 -49 -46 -7 7 47 77 59 77 5 0 0 -14 -10 -31z m167 24 c0 -12 -43 -53 -57
-53 -21 0 -15 17 13 39 27 21 44 27 44 14z m64 -8 c-4 -8 -10 -15 -15 -15 -4
0 -6 7 -3 15 4 8 10 15 15 15 4 0 6 -7 3 -15z m896 10 c0 -7 -43 -45 -52 -45
-5 0 -1 11 8 25 14 21 44 35 44 20z m600 -4 c0 -6 -8 -16 -18 -23 -10 -7 -24
-22 -30 -33 -11 -19 -11 -19 -12 -1 0 11 10 30 22 43 22 24 38 30 38 14z
m-1170 -11 c0 -5 -4 -10 -10 -10 -5 0 -10 5 -10 10 0 6 5 10 10 10 6 0 10 -4
10 -10z m925 1 c3 -5 1 -12 -5 -16 -5 -3 -10 1 -10 9 0 18 6 21 15 7z m-1015
-8 c0 -11 -71 -56 -77 -50 -2 3 13 17 34 31 42 29 43 29 43 19z m50 -13 c0 -5
-5 -10 -11 -10 -5 0 -7 5 -4 10 3 6 8 10 11 10 2 0 4 -4 4 -10z m370 -4 c-10
-14 -142 -86 -154 -86 -19 0 1 19 42 40 26 14 58 33 71 43 30 22 59 24 41 3z
m560 10 c0 -2 -7 -6 -15 -10 -8 -3 -15 -1 -15 4 0 6 7 10 15 10 8 0 15 -2 15
-4z m188 -7 c-2 -6 -8 -10 -13 -10 -5 0 -11 4 -13 10 -2 6 4 11 13 11 9 0 15
-5 13 -11z m-1428 -7 c0 -13 -23 -32 -39 -32 -11 0 -10 4 4 20 19 21 35 26 35
12z m1070 -2 c0 -5 -2 -10 -4 -10 -2 0 -12 -3 -22 -7 -16 -6 -17 -5 -4 10 17
19 30 22 30 7z m37 -12 c-3 -8 -6 -5 -6 6 -1 11 2 17 5 13 3 -3 4 -12 1 -19z
m-707 4 c0 -5 -12 -15 -27 -23 -46 -23 -49 -22 -18 5 31 26 45 32 45 18z m130
-1 c0 -8 -53 -32 -69 -31 -3 1 5 10 18 20 24 21 51 26 51 11z m378 -14 c-15
-12 -42 -30 -60 -40 l-33 -18 29 23 c16 13 37 31 45 40 9 9 23 17 31 17 9 0 5
-8 -12 -22z m376 4 c-14 -14 -39 -17 -42 -6 -2 6 7 13 20 16 27 7 36 3 22 -10z
m-1554 5 c0 -3 -4 -8 -10 -11 -5 -3 -10 -1 -10 4 0 6 5 11 10 11 6 0 10 -2 10
-4z m140 -21 c0 -8 -5 -26 -11 -42 -7 -15 -11 -48 -9 -72 1 -26 -2 -41 -8 -37
-5 3 -12 -3 -15 -14 -4 -16 0 -20 22 -20 38 0 43 8 23 42 -14 24 -14 30 -3 37
7 5 11 13 7 19 -10 16 15 27 25 11 7 -11 13 -9 29 11 l20 25 0 -27 c0 -35 18
-36 26 -2 9 35 22 18 28 -36 4 -38 3 -41 -6 -22 -6 12 -18 22 -27 22 -11 0
-12 -3 -4 -8 6 -4 11 -16 10 -27 -1 -12 4 -20 13 -20 8 0 21 -4 28 -8 16 -11
32 0 32 21 1 14 2 14 12 -3 6 -11 12 -21 13 -23 1 -1 15 3 31 9 16 7 33 11 37
10 4 0 16 3 27 9 13 7 21 7 26 -2 4 -7 4 -10 -1 -6 -4 4 -13 4 -19 -1 -15 -11
-173 -58 -306 -90 -33 -8 -133 -35 -302 -80 -113 -30 -231 -61 -235 -61 -1 0
-3 71 -2 158 0 97 4 149 9 137 7 -17 9 -17 9 -2 1 9 5 17 10 17 21 0 41 -13
41 -26 0 -8 9 -14 20 -14 11 0 20 4 20 9 0 5 25 11 55 13 39 2 55 -1 55 -9 0
-7 -7 -13 -15 -13 -23 0 -18 -15 9 -30 13 -7 27 -21 29 -32 5 -17 9 -18 27 -8
12 6 19 18 16 25 -3 8 8 24 25 38 17 13 32 32 34 43 2 10 4 20 4 22 1 2 6 0
12 -4 8 -4 8 -9 0 -17 -19 -19 -13 -39 9 -32 11 3 38 6 60 7 37 0 40 2 40 29
0 17 7 32 19 38 10 6 22 22 25 36 7 26 26 26 26 0z m410 18 c-1 -11 -50 -46
-56 -40 -6 6 36 47 48 47 4 0 8 -3 8 -7z m1090 -23 c-19 -16 -38 -30 -42 -30
-3 0 -13 -3 -22 -6 -11 -4 -16 0 -16 14 0 24 11 32 54 43 57 13 61 9 26 -21z
m126 -5 c-15 -23 -36 -34 -36 -18 0 10 43 54 48 48 3 -2 -3 -16 -12 -30z
m-1682 1 c-3 -9 -12 -16 -20 -16 -8 0 -15 -8 -15 -17 -1 -17 -2 -17 -6 0 -3
10 5 25 19 36 26 22 31 21 22 -3z m308 2 c-7 -7 -12 -8 -12 -2 0 14 12 26 19
19 2 -3 -1 -11 -7 -17z m708 12 c0 -11 -52 -40 -71 -40 -7 0 2 11 21 25 36 27
50 31 50 15z m160 0 c0 -5 -7 -10 -16 -10 -8 0 -12 5 -9 10 3 6 10 10 16 10 5
0 9 -4 9 -10z m225 1 c3 -5 -4 -13 -16 -16 -23 -8 -34 -1 -24 14 8 13 32 14
40 2z m345 -4 c0 -17 -58 -73 -66 -64 -7 7 45 77 57 77 5 0 9 -6 9 -13z
m-1625 -7 c3 -5 1 -10 -4 -10 -6 0 -11 5 -11 10 0 6 2 10 4 10 3 0 8 -4 11
-10z m1085 5 c0 -11 -44 -65 -52 -65 -15 0 -8 24 14 47 20 22 38 30 38 18z
m77 -17 c-3 -8 -6 -5 -6 6 -1 11 2 17 5 13 3 -3 4 -12 1 -19z m352 5 c0 -10
-3 -13 -5 -6 -3 7 -12 9 -21 6 -11 -4 -14 -2 -9 5 11 18 36 14 35 -5z m-999 3
c0 -5 -109 -56 -118 -56 -13 0 19 24 55 41 37 17 63 23 63 15z m625 -15 c-8
-14 -25 -14 -25 0 0 5 5 7 10 4 6 -3 10 -1 10 6 0 7 3 10 6 6 3 -3 3 -10 -1
-16z m75 9 c0 -5 -7 -10 -16 -10 -8 0 -12 5 -9 10 3 6 10 10 16 10 5 0 9 -4 9
-10z m-200 -10 c0 -5 -5 -10 -11 -10 -5 0 -7 5 -4 10 3 6 8 10 11 10 2 0 4 -4
4 -10z m450 -3 c0 -8 -11 -19 -25 -25 -31 -14 -33 0 -2 21 28 20 27 20 27 4z
m-125 -7 c3 -5 0 -10 -8 -10 -8 0 -20 -7 -27 -15 -14 -17 -50 -20 -50 -5 0 6
15 17 33 25 39 17 44 18 52 5z m-1085 -15 c-7 -8 -17 -15 -22 -15 -6 0 -5 7 2
15 7 8 17 15 22 15 6 0 5 -7 -2 -15z m95 5 c-3 -5 -16 -15 -28 -21 -22 -12
-22 -12 -3 10 19 21 43 30 31 11z m455 0 c0 -13 -58 -42 -78 -38 -12 2 -7 9
18 25 37 24 60 29 60 13z m-240 -10 c0 -11 -59 -44 -66 -37 -3 3 10 14 28 25
40 25 38 24 38 12z m395 0 c3 -5 1 -10 -4 -10 -6 0 -11 5 -11 10 0 6 2 10 4
10 3 0 8 -4 11 -10z m-85 -10 c0 -11 -59 -44 -66 -37 -3 2 10 14 28 26 38 24
38 24 38 11z m230 3 c-1 -15 -30 -46 -37 -40 -3 4 2 16 12 27 19 21 25 24 25
13z m95 -3 c3 -5 -3 -10 -15 -10 -12 0 -18 5 -15 10 3 6 10 10 15 10 5 0 12
-4 15 -10z m315 6 c0 -2 -8 -10 -17 -17 -16 -13 -17 -12 -4 4 13 16 21 21 21
13z m97 -18 c-3 -8 -6 -5 -6 6 -1 11 2 17 5 13 3 -3 4 -12 1 -19z m-1480 -20
c-3 -7 -5 -2 -5 12 0 14 2 19 5 13 2 -7 2 -19 0 -25z m1016 15 c-8 -25 -24
-43 -35 -43 -5 0 0 14 12 30 24 34 32 38 23 13z m-1039 -8 c3 -9 0 -15 -9 -15
-8 0 -15 7 -15 15 0 8 4 15 9 15 5 0 11 -7 15 -15z m1121 5 c3 -5 1 -10 -4
-10 -6 0 -11 5 -11 10 0 6 2 10 4 10 3 0 8 -4 11 -10z m155 2 c0 -9 -44 -32
-60 -32 -22 0 -8 17 23 27 17 5 33 11 35 12 1 0 2 -3 2 -7z m62 -24 c-12 -12
-25 -18 -29 -14 -4 4 3 16 17 26 32 24 40 16 12 -12z m79 11 c-12 -12 -25 -18
-28 -15 -9 9 18 36 35 36 12 0 11 -5 -7 -21z m-1251 6 c0 -2 -10 -9 -22 -15
-22 -11 -22 -10 -4 4 21 17 26 19 26 11z m720 -20 c-13 -14 -28 -25 -33 -25
-6 0 0 11 13 25 13 14 28 25 33 25 6 0 0 -11 -13 -25z m544 -30 c-25 -25 -50
-45 -55 -45 -5 0 12 22 38 48 26 27 51 47 55 45 4 -2 -13 -24 -38 -48z m-878
30 c-20 -15 -36 -19 -36 -10 0 5 38 23 50 24 3 0 -4 -6 -14 -14z m220 -11
c-30 -21 -44 -16 -17 7 13 11 27 17 30 13 3 -3 -3 -12 -13 -20z m-679 -6 c-3
-8 -6 -5 -6 6 -1 11 2 17 5 13 3 -3 4 -12 1 -19z m-20 -10 c-3 -8 -6 -5 -6 6
-1 11 2 17 5 13 3 -3 4 -12 1 -19z m137 1 c4 -4 -3 -6 -17 -6 -20 0 -23 2 -14
12 7 7 14 10 17 7 3 -4 9 -10 14 -13z m736 14 c0 -13 -68 -55 -80 -51 -7 2 6
15 27 30 40 28 53 33 53 21z m141 -16 c-13 -13 -26 -3 -16 12 3 6 11 8 17 5 6
-4 6 -10 -1 -17z m419 16 c0 -10 -75 -63 -87 -63 -10 1 69 70 80 70 4 0 7 -3
7 -7z m-1030 -12 c0 -9 -33 -24 -80 -36 -22 -6 -23 -6 -10 8 8 9 31 20 50 25
19 6 36 11 38 11 1 1 2 -3 2 -8z m690 -1 c0 -5 -8 -10 -17 -10 -15 0 -16 2 -3
10 19 12 20 12 20 0z m100 1 c0 -5 -20 -19 -45 -31 -25 -12 -45 -28 -45 -36 0
-8 -4 -14 -9 -14 -5 0 -16 -3 -25 -6 -30 -11 -15 11 29 46 25 19 55 38 67 42
13 3 24 6 26 7 1 1 2 -3 2 -8z m115 -1 c-3 -5 -11 -10 -16 -10 -6 0 -7 5 -4
10 3 6 11 10 16 10 6 0 7 -4 4 -10z m-765 -5 c0 -2 -13 -11 -30 -20 -16 -9
-30 -12 -30 -7 0 5 10 14 23 20 25 12 37 14 37 7z m350 -40 c-30 -32 -38 -25
-9 9 12 14 25 24 27 21 3 -3 -5 -16 -18 -30z m-270 15 c-20 -13 -33 -13 -25 0
3 6 14 10 23 10 15 0 15 -2 2 -10z m105 0 c-3 -5 -14 -10 -23 -10 -15 0 -15 2
-2 10 20 13 33 13 25 0z m350 0 c3 -5 -3 -10 -14 -10 -12 0 -21 5 -21 10 0 6
6 10 14 10 8 0 18 -4 21 -10z m-70 -10 c-3 -5 -21 -9 -38 -9 l-32 1 30 8 c43
11 47 11 40 0z m215 -10 c0 -5 -5 -10 -11 -10 -5 0 -7 5 -4 10 3 6 8 10 11 10
2 0 4 -4 4 -10z m-670 -10 c-20 -13 -33 -13 -25 0 3 6 14 10 23 10 15 0 15 -2
2 -10z m630 1 c0 -12 -20 -25 -27 -18 -7 7 6 27 18 27 5 0 9 -4 9 -9z m91 -24
c-8 -8 -11 -7 -11 4 0 20 13 34 18 19 3 -7 -1 -17 -7 -23z m49 2 c-6 -11 -18
-23 -26 -26 -8 -3 -14 -11 -14 -18 0 -15 -35 -39 -68 -47 -20 -6 -19 -3 9 23
17 16 33 29 36 29 3 0 18 14 33 30 33 35 45 39 30 9z m70 -4 c-7 -9 -15 -13
-18 -10 -3 2 1 11 8 20 7 9 15 13 18 10 3 -2 -1 -11 -8 -20z m-1155 -21 c30
-33 33 -55 4 -28 -22 20 -44 54 -34 54 3 0 17 -12 30 -26z m372 20 c-3 -3 -12
-4 -19 -1 -8 3 -5 6 6 6 11 1 17 -2 13 -5z m357 0 c24 -9 19 -24 -9 -24 -18 0
-23 -4 -19 -15 4 -9 0 -15 -10 -15 -20 0 -20 10 0 38 17 25 16 24 38 16z m76
-4 c0 -5 -2 -10 -4 -10 -3 0 -8 5 -11 10 -3 6 -1 10 4 10 6 0 11 -4 11 -10z
m100 0 c0 -12 -48 -32 -64 -27 -6 2 3 11 19 20 35 19 45 21 45 7z m-130 -10
c0 -5 -4 -10 -10 -10 -5 0 -10 5 -10 10 0 6 5 10 10 10 6 0 10 -4 10 -10z
m-776 -79 c-8 -8 -64 52 -64 68 1 10 14 1 35 -24 18 -22 32 -42 29 -44z m72
65 c3 -8 14 -12 27 -9 22 4 22 4 3 -11 -23 -19 -36 -20 -36 -5 0 5 -4 8 -9 4
-6 -3 -9 4 -8 15 1 23 15 27 23 6z m124 4 c0 -5 -2 -10 -4 -10 -3 0 -8 5 -11
10 -3 6 -1 10 4 10 6 0 11 -4 11 -10z m778 -7 c-3 -17 -54 -40 -65 -29 -4 3 2
15 13 25 24 25 57 27 52 4z m150 5 c-2 -6 -13 -16 -23 -22 -11 -6 -25 -18 -31
-26 -7 -8 -15 -12 -19 -8 -4 4 7 20 24 37 32 31 56 41 49 19z m-963 -28 c10
-11 15 -23 12 -27 -8 -7 -47 25 -47 39 0 14 16 9 35 -12z m99 5 c-10 -8 -25
-15 -33 -15 -11 0 -9 4 5 15 10 8 25 15 33 15 11 0 9 -4 -5 -15z m562 -4 c-8
-12 -107 -44 -114 -37 -8 8 -3 11 48 28 54 18 73 21 66 9z m49 -21 c-11 -5
-27 -9 -35 -9 -13 -1 -13 0 0 9 8 5 24 9 35 9 l20 0 -20 -9z m271 -45 c-9 -14
-22 -25 -28 -25 -6 0 -2 10 10 23 26 27 19 41 -12 25 -19 -10 -20 -10 -7 6 8
9 20 15 28 12 7 -3 14 0 14 7 1 7 3 4 6 -6 3 -10 -3 -29 -11 -42z m-466 35 c0
-5 -7 -10 -16 -10 -8 0 -12 5 -9 10 3 6 10 10 16 10 5 0 9 -4 9 -10z m-749
-34 c-24 -25 -21 -49 4 -39 10 3 15 -1 15 -12 0 -13 6 -16 25 -11 18 5 25 2
25 -8 0 -7 25 -24 55 -36 30 -12 55 -26 55 -29 0 -4 -23 -18 -51 -32 -61 -28
-81 -64 -49 -86 11 -8 20 -22 20 -32 0 -26 11 -33 29 -17 9 7 50 28 91 47 91
40 84 35 77 53 -5 11 -21 6 -79 -25 -40 -21 -80 -38 -88 -38 -8 0 15 15 52 34
36 19 70 39 73 45 4 6 -1 22 -9 35 -20 31 -14 32 17 3 105 -99 108 -101 133
-87 30 15 39 7 24 -20 -6 -12 -9 -21 -6 -21 2 0 11 -3 20 -6 11 -4 16 0 16 13
0 23 9 35 21 27 5 -2 4 -16 -1 -30 -6 -14 -7 -31 -3 -37 4 -6 10 -1 15 13 6
17 12 20 20 12 8 -8 8 -15 -1 -25 -9 -11 -8 -17 5 -28 14 -12 19 -10 38 12 11
15 26 35 32 45 7 10 15 16 19 12 8 -8 5 -16 -25 -67 -17 -26 -18 -36 -9 -48
11 -12 14 -12 21 2 13 22 29 8 23 -18 -4 -15 3 -34 21 -57 19 -26 24 -29 19
-12 -3 12 -2 22 3 22 6 0 8 8 5 18 -2 10 3 24 11 31 9 8 16 29 16 51 0 23 5
40 14 43 7 3 16 18 19 34 3 15 11 42 18 58 7 17 11 36 10 42 -5 30 30 72 68
84 35 10 45 9 85 -10 25 -11 50 -21 54 -21 10 0 51 -33 94 -75 29 -28 30 -33
25 -92 -6 -79 -64 -201 -143 -300 l-57 -73 -73 0 c-40 0 -76 5 -79 10 -3 6
-19 10 -35 10 -16 0 -32 -4 -35 -10 -3 -5 -23 -9 -43 -9 -23 1 -29 3 -14 6 12
2 22 8 22 13 0 4 15 11 34 14 19 4 36 13 39 21 9 22 -87 11 -122 -14 -16 -12
-32 -21 -35 -21 -14 0 -4 23 17 40 21 18 21 19 3 26 -12 5 -21 2 -27 -8 -5 -9
-30 -28 -56 -43 -37 -22 -50 -26 -64 -17 -10 7 -26 9 -35 5 -14 -5 -15 -1 -10
25 10 44 -8 47 -39 6 -16 -21 -33 -33 -41 -30 -8 3 -14 -1 -14 -9 0 -11 -11
-15 -40 -15 -37 0 -40 2 -42 28 -1 15 -2 35 -3 44 0 9 -3 20 -7 23 -3 3 -3 27
-1 53 5 45 4 46 -11 25 -10 -13 -19 -52 -23 -97 -6 -74 -7 -76 -33 -76 -26 0
-27 3 -34 61 -3 34 -3 66 0 71 4 6 0 14 -7 19 -11 7 -11 9 2 9 11 0 19 11 22
33 4 17 9 46 12 63 9 41 -29 104 -62 104 -12 0 -36 14 -54 31 -38 38 -159 95
-219 103 -69 10 -130 28 -125 36 5 9 112 47 250 89 68 21 104 38 113 52 8 12
16 18 19 15 4 -3 -4 -17 -16 -30z m339 27 c0 -5 -11 -13 -25 -20 -14 -6 -25
-7 -25 -2 0 5 10 14 23 19 29 11 27 11 27 3z m-177 -30 c-7 -3 -13 -11 -13
-19 0 -8 -7 -14 -15 -14 -8 0 -15 5 -15 10 0 6 4 10 9 10 5 0 11 10 15 22 4
19 7 20 18 9 10 -11 10 -14 1 -18z m-53 1 c0 -2 -9 -4 -20 -4 -11 0 -20 4 -20
9 0 5 9 7 20 4 11 -3 20 -7 20 -9z m320 -14 c6 -11 8 -20 6 -20 -3 0 -10 9
-16 20 -6 11 -8 20 -6 20 3 0 10 -9 16 -20z m-370 0 c0 -5 -4 -10 -10 -10 -5
0 -10 5 -10 10 0 6 5 10 10 10 6 0 10 -4 10 -10z m180 -10 c0 -5 -2 -10 -4
-10 -3 0 -8 5 -11 10 -3 6 -1 10 4 10 6 0 11 -4 11 -10z m100 -4 c0 -14 -29
-31 -38 -21 -6 6 18 35 29 35 5 0 9 -6 9 -14z m659 5 c11 -7 9 -11 -8 -21 -29
-15 -53 -10 -57 13 -2 12 5 17 24 17 15 0 33 -4 41 -9z m-783 -16 c13 -13 13
-17 2 -29 -8 -7 -29 -17 -46 -21 -25 -5 -32 -3 -32 8 0 19 22 27 49 20 23 -6
28 6 9 25 -7 7 -9 12 -4 12 4 0 14 -7 22 -15z m69 -15 c3 -5 1 -10 -4 -10 -6
0 -11 5 -11 10 0 6 2 10 4 10 3 0 8 -4 11 -10z m105 0 c-20 -13 -53 -13 -45 0
3 6 18 10 33 10 21 0 24 -2 12 -10z m80 -10 c0 -5 -2 -10 -4 -10 -3 0 -8 5
-11 10 -3 6 -1 10 4 10 6 0 11 -4 11 -10z m610 5 c0 -11 -54 -26 -69 -19 -12
5 -8 9 14 14 39 10 55 11 55 5z m-752 -22 c-2 -10 -13 -17 -30 -17 -21 -1 -24
1 -16 11 6 7 14 11 18 8 5 -3 11 -1 15 5 10 15 17 12 13 -7z m86 -7 c-3 -9
-15 -16 -25 -16 -10 0 -19 -7 -19 -15 0 -8 -8 -15 -17 -15 -14 1 -11 6 12 26
17 13 35 28 40 33 14 12 17 7 9 -13z m1296 4 c3 -2 14 -3 25 -4 16 -1 21 -10
26 -51 3 -27 7 -45 7 -40 2 13 59 18 66 6 3 -4 -4 -17 -15 -27 -17 -16 -22
-16 -31 -4 -8 12 -9 12 -4 -2 3 -10 2 -18 -3 -18 -16 0 -24 -53 -25 -155 -1
-97 -2 -100 -23 -99 -13 1 -23 -3 -23 -7 0 -5 5 -9 11 -9 7 0 9 -10 7 -25 -3
-13 -2 -23 1 -20 4 2 13 0 21 -5 12 -8 13 -13 3 -30 -7 -11 -13 -27 -13 -35 0
-8 -7 -15 -16 -15 -8 0 -12 -4 -9 -10 6 -10 -33 -14 -85 -10 -32 3 -37 7 -22
22 9 9 15 9 24 0 11 -11 58 -17 58 -8 0 3 -5 17 -10 31 -7 18 -15 25 -25 21
-8 -3 -15 -1 -15 4 0 6 7 10 16 10 13 0 14 3 5 13 -14 18 -4 27 31 27 15 0 28
5 28 10 0 6 -4 10 -9 10 -11 0 -22 40 -15 52 3 5 12 4 19 -2 10 -8 11 -2 4 34
-8 43 -37 86 -59 86 -5 0 -10 7 -10 15 0 8 7 15 15 15 8 0 15 -7 15 -15 0 -8
7 -15 16 -15 10 0 14 6 10 15 -3 10 1 15 11 15 9 0 13 3 10 7 -4 3 -2 12 4 20
9 10 5 9 -17 -2 -16 -8 -39 -15 -51 -15 -14 0 -23 -6 -23 -15 0 -8 -7 -15 -15
-15 -17 0 -21 26 -5 32 6 2 12 22 14 45 2 24 -1 40 -6 37 -5 -3 -15 0 -23 6
-12 10 -15 9 -15 -4 0 -9 -4 -16 -8 -16 -9 0 -10 40 -1 55 3 6 9 18 13 29 5
15 2 17 -14 13 -14 -4 -19 -1 -16 6 3 7 9 19 12 28 4 13 18 16 67 14 34 -2 64
-4 67 -5z m-1200 -4 c0 -11 -19 -15 -25 -6 -3 5 1 10 9 10 9 0 16 -2 16 -4z
m44 -29 c-3 -9 -10 -17 -15 -17 -11 0 -12 34 -2 44 11 11 24 -9 17 -27z m586
24 c0 -8 -52 -23 -59 -16 -1 2 0 8 4 14 8 13 55 15 55 2z m-670 -11 c0 -5 -9
-14 -21 -20 -19 -11 -20 -10 -9 9 11 22 30 29 30 11z m120 -14 c0 -45 -13 -86
-26 -86 -16 0 -18 12 -4 26 5 5 11 26 12 47 3 40 18 52 18 13z m601 13 c-16
-6 -28 -6 -35 1 -7 7 1 10 25 9 32 0 33 -1 10 -10z m-866 -30 c-4 -5 -13 -9
-22 -9 -13 0 -13 3 -3 15 13 15 35 11 25 -6z m785 1 c12 -8 11 -10 -7 -10 -13
0 -23 5 -23 10 0 13 11 13 30 0z m-697 -17 c-10 -28 -39 -52 -59 -49 -21 3
-30 21 -15 31 6 3 11 1 11 -4 0 -6 7 -11 15 -11 8 0 15 4 15 9 0 9 28 41 35
41 3 0 2 -8 -2 -17z m107 -2 c0 -22 -48 -57 -61 -44 -10 10 -1 24 31 46 30 21
30 21 30 -2z m120 -15 c0 -8 -4 -18 -10 -21 -5 -3 -10 3 -10 14 0 12 5 21 10
21 6 0 10 -6 10 -14z m17 -28 c-3 -8 -6 -5 -6 6 -1 11 2 17 5 13 3 -3 4 -12 1
-19z m-118 -60 c-11 -20 -29 -24 -29 -7 0 6 5 20 11 31 9 16 13 18 19 7 5 -7
4 -21 -1 -31z m105 -2 c-3 -14 -10 -26 -15 -26 -11 0 -11 3 1 36 13 33 23 26
14 -10z m-1044 4 c0 -5 -4 -10 -10 -10 -5 0 -10 5 -10 10 0 6 5 10 10 10 6 0
10 -4 10 -10z m2020 -16 c0 -8 -4 -12 -10 -9 -5 3 -10 13 -10 21 0 8 5 12 10
9 6 -3 10 -13 10 -21z m-1970 -14 c-6 -11 -13 -20 -16 -20 -2 0 0 9 6 20 6 11
13 20 16 20 2 0 0 -9 -6 -20z m63 -28 c-3 -12 -9 -22 -14 -22 -5 0 -3 11 3 25
13 30 20 28 11 -3z m953 -9 c-10 -10 -19 5 -10 18 6 11 8 11 12 0 2 -7 1 -15
-2 -18z m927 7 c3 -11 1 -20 -4 -20 -5 0 -9 9 -9 20 0 11 2 20 4 20 2 0 6 -9
9 -20z m-2053 0 c-8 -5 -19 -10 -25 -10 -5 0 -3 5 5 10 8 5 20 10 25 10 6 0 3
-5 -5 -10z m220 -10 c-6 -11 -15 -20 -21 -20 -6 0 -6 7 1 20 6 11 15 20 21 20
6 0 6 -7 -1 -20z m-207 -24 c-10 -13 -20 -20 -22 -14 -1 5 5 16 15 23 26 20
28 18 7 -9z m289 2 c-7 -7 -12 -8 -12 -2 0 14 12 26 19 19 2 -3 -1 -11 -7 -17z
m63 -28 c-10 -11 -25 -20 -33 -20 -11 0 -8 6 8 20 13 11 28 20 33 20 6 0 2 -9
-8 -20z m1748 -11 c7 -1 14 -1 17 -1 8 1 4 -84 -4 -96 -4 -7 -17 -5 -36 5 -35
17 -34 14 -18 48 10 23 10 28 -6 37 -17 9 -16 11 5 22 19 9 25 9 27 -1 2 -7 9
-14 15 -14z m-1568 1 c3 -5 1 -10 -4 -10 -6 0 -11 5 -11 10 0 6 2 10 4 10 3 0
8 -4 11 -10z m-760 -10 c3 -5 1 -10 -4 -10 -6 0 -11 5 -11 10 0 6 2 10 4 10 3
0 8 -4 11 -10z m128 -22 c-17 -18 -33 -40 -36 -48 -5 -13 -6 -13 -6 0 -1 15
54 80 66 80 4 0 -7 -15 -24 -32z m337 22 c5 -2 -60 -28 -72 -29 -5 -1 0 7 10
18 14 16 35 19 62 11z m41 -23 c-10 -9 -11 -8 -5 6 3 10 9 15 12 12 3 -3 0
-11 -7 -18z m803 8 c-4 -8 -10 -15 -15 -15 -4 0 -6 7 -3 15 4 8 10 15 15 15 4
0 6 -7 3 -15z m-734 -5 c0 -5 -9 -14 -21 -20 -19 -11 -20 -10 -9 9 11 22 30
29 30 11z m-343 -16 c-3 -3 -12 -4 -19 -1 -8 3 -5 6 6 6 11 1 17 -2 13 -5z
m108 -24 c-10 -11 -20 -18 -23 -15 -7 6 18 35 31 35 5 0 2 -9 -8 -20z m335 5
c0 -8 -4 -15 -10 -15 -5 0 -7 7 -4 15 4 8 8 15 10 15 2 0 4 -7 4 -15z m-425
-5 c-73 -20 -82 -21 -50 -6 17 9 41 15 55 15 23 -1 23 -2 -5 -9z m384 3 c0
-11 -59 -57 -59 -47 0 4 10 18 22 31 21 23 39 30 37 16z m71 -3 c0 -5 -5 -10
-11 -10 -5 0 -7 5 -4 10 3 6 8 10 11 10 2 0 4 -4 4 -10z m-545 -19 c-3 -6 -11
-11 -17 -11 -6 0 -6 6 2 15 14 17 26 13 15 -4z m335 4 c-7 -8 -18 -15 -24 -15
-6 0 -2 7 8 15 25 19 32 19 16 0z m-246 -16 c-10 -11 -28 -26 -39 -31 -14 -8
-12 -2 9 21 33 34 61 44 30 10z m266 -14 c-7 -8 -17 -15 -23 -15 -5 0 -2 9 8
20 21 23 35 19 15 -5z m205 18 c-11 -3 -26 -10 -33 -15 -9 -8 -11 -7 -6 6 4
10 16 16 33 15 20 -1 22 -2 6 -6z m-549 -28 c-22 -16 -46 -20 -46 -7 0 15 13
22 39 22 25 -1 25 -1 7 -15z m464 11 c0 -3 -4 -8 -10 -11 -5 -3 -10 -1 -10 4
0 6 5 11 10 11 6 0 10 -2 10 -4z m1787 -28 c-3 -8 -6 -5 -6 6 -1 11 2 17 5 13
3 -3 4 -12 1 -19z m-1887 2 c0 -5 -5 -10 -11 -10 -5 0 -7 5 -4 10 3 6 8 10 11
10 2 0 4 -4 4 -10z m-515 -10 c3 -5 -1 -10 -10 -10 -9 0 -13 5 -10 10 3 6 8
10 10 10 2 0 7 -4 10 -10z m305 0 c0 -5 -5 -10 -11 -10 -5 0 -7 5 -4 10 3 6 8
10 11 10 2 0 4 -4 4 -10z m-270 -10 c0 -5 -5 -10 -11 -10 -5 0 -7 5 -4 10 3 6
8 10 11 10 2 0 4 -4 4 -10z m491 -10 c-13 -11 -30 -20 -39 -20 -19 0 -15 5 23
24 40 21 45 20 16 -4z m-566 0 c-3 -5 -16 -10 -28 -9 -21 0 -21 1 -2 9 28 12
37 12 30 0z m255 -15 c-7 -8 -17 -15 -23 -15 -5 0 -2 9 8 20 21 23 35 19 15
-5z m260 21 c0 -2 -9 -6 -20 -9 -11 -3 -18 -1 -14 4 5 9 34 13 34 5z m104 -10
c-3 -8 -15 -17 -27 -20 -21 -5 -20 -4 3 14 30 24 31 24 24 6z m126 5 c0 -5 -6
-14 -14 -21 -8 -6 -13 -17 -10 -24 5 -13 -31 -49 -58 -59 -30 -11 -20 16 17
46 20 16 33 32 30 38 -4 5 -3 14 0 19 8 12 35 13 35 1z m-60 -11 c0 -5 -5 -10
-11 -10 -5 0 -7 5 -4 10 3 6 8 10 11 10 2 0 4 -4 4 -10z m-574 -27 c-10 -10
-19 5 -10 18 6 11 8 11 12 0 2 -7 1 -15 -2 -18z m520 3 c-11 -6 -28 -19 -38
-29 -11 -10 -22 -17 -24 -14 -3 3 12 19 32 36 21 17 40 28 43 25 3 -4 -3 -11
-13 -18z m-711 4 c-3 -5 -11 -10 -16 -10 -6 0 -7 5 -4 10 3 6 11 10 16 10 6 0
7 -4 4 -10z m111 -5 c-1 -9 -5 -15 -9 -15 -4 0 -12 0 -18 0 -8 0 -8 5 1 15 16
19 29 19 26 0z m524 -10 c-7 -9 -15 -13 -17 -11 -7 7 7 26 19 26 6 0 6 -6 -2
-15z m1189 -37 c1 -10 -3 -18 -9 -18 -5 0 -10 17 -9 38 0 30 2 33 9 17 5 -11
9 -28 9 -37z m-1795 31 c-12 -19 -76 -41 -87 -30 -7 7 0 12 19 16 16 4 38 10
49 15 27 12 27 12 19 -1z m1874 -15 c31 -22 27 -34 -12 -34 -29 0 -33 3 -33
25 0 29 13 32 45 9z m-1568 2 c0 -2 -8 -10 -17 -17 -16 -13 -17 -12 -4 4 13
16 21 21 21 13z m370 -15 c0 -6 -4 -13 -10 -16 -5 -3 -10 1 -10 9 0 9 5 16 10
16 6 0 10 -4 10 -9z m585 -11 c3 -6 -4 -10 -17 -10 -18 0 -20 2 -8 10 19 12
18 12 25 0z m490 0 c3 -5 1 -10 -4 -10 -6 0 -11 5 -11 10 0 6 2 10 4 10 3 0 8
-4 11 -10z m755 6 c0 -2 -7 -6 -15 -10 -8 -3 -15 -1 -15 4 0 6 7 10 15 10 8 0
15 -2 15 -4z"/>
<path d="M663 3235 c0 -27 2 -38 4 -22 2 15 2 37 0 50 -2 12 -4 0 -4 -28z"/>
<path d="M1042 2071 c2 -41 18 -59 18 -21 0 11 5 20 11 20 5 0 7 -5 3 -12 -4
-7 -3 -8 4 -4 17 10 14 19 -14 39 l-25 19 3 -41z"/>
<path d="M1211 1990 c-9 -5 -4 -7 13 -7 29 0 32 2 13 10 -8 3 -20 2 -26 -3z"/>
<path d="M1018 1963 c7 -3 16 -2 19 1 4 3 -2 6 -13 5 -11 0 -14 -3 -6 -6z"/>
<path d="M993 1933 c9 -2 25 -2 35 0 9 3 1 5 -18 5 -19 0 -27 -2 -17 -5z"/>
<path d="M1920 2100 c0 -5 5 -10 11 -10 5 0 7 5 4 10 -3 6 -8 10 -11 10 -2 0
-4 -4 -4 -10z"/>
<path d="M1737 1813 c-11 -10 13 -32 29 -26 8 3 14 -1 14 -8 0 -7 3 -10 6 -7
3 3 -1 15 -8 27 -13 21 -29 27 -41 14z"/>
<path d="M2893 1413 c9 -2 23 -2 30 0 6 3 -1 5 -18 5 -16 0 -22 -2 -12 -5z"/>
<path d="M2900 1365 c0 -8 4 -15 10 -15 5 0 7 7 4 15 -4 8 -8 15 -10 15 -2 0
-4 -7 -4 -15z"/>
<path d="M2943 1346 c7 -14 13 -23 15 -21 7 6 -9 45 -18 45 -4 0 -3 -11 3 -24z"/>
<path d="M730 1080 c-13 -8 -12 -10 3 -10 9 0 17 5 17 10 0 12 -1 12 -20 0z"/>
<path d="M1255 1080 c3 -5 8 -10 11 -10 2 0 4 5 4 10 0 6 -5 10 -11 10 -5 0
-7 -4 -4 -10z"/>
<path d="M1277 1045 c3 -8 9 -12 14 -9 12 7 11 11 -5 17 -10 4 -13 1 -9 -8z"/>
<path d="M775 1040 c-3 -6 1 -7 9 -4 18 7 21 14 7 14 -6 0 -13 -4 -16 -10z"/>
<path d="M2060 398 c0 -36 21 -59 48 -52 29 8 27 13 -14 47 l-34 29 0 -24z"/>
<path d="M1916 374 c-10 -27 -7 -64 7 -64 9 0 9 -2 0 -8 -6 -4 -14 -21 -18
-37 -6 -29 -6 -29 34 15 42 47 51 66 26 57 -8 -4 -17 -2 -20 3 -4 6 1 10 10
10 13 0 14 4 5 20 -13 24 -36 26 -44 4z m19 -44 c3 -5 1 -10 -4 -10 -6 0 -11
5 -11 10 0 6 2 10 4 10 3 0 8 -4 11 -10z"/>
<path d="M2112 320 c-17 -14 -22 -25 -17 -40 6 -18 8 -18 21 -5 9 8 24 20 35
26 16 8 18 13 8 25 -15 18 -19 17 -47 -6z"/>
<path d="M3266 736 c-3 -11 -7 -23 -8 -26 -2 -3 5 -5 15 -5 10 0 21 -6 25 -12
5 -8 8 1 9 21 1 41 -31 59 -41 22z"/>
<path d="M3280 590 c0 -6 7 -10 15 -10 8 0 15 2 15 4 0 2 -7 6 -15 10 -8 3
-15 1 -15 -4z"/>
<path d="M3360 490 c0 -5 5 -10 11 -10 5 0 7 5 4 10 -3 6 -8 10 -11 10 -2 0
-4 -4 -4 -10z"/>
<path d="M3342 258 c6 -18 28 -21 28 -4 0 9 -7 16 -16 16 -9 0 -14 -5 -12 -12z"/>
<path d="M2560 3093 c0 -22 2 -25 10 -13 13 20 13 40 0 40 -5 0 -10 -12 -10
-27z"/>
<path d="M2666 1861 c-5 -8 -4 -16 4 -21 16 -10 40 -2 40 12 0 6 -6 6 -14 -1
-11 -10 -15 -8 -18 6 -3 14 -5 15 -12 4z"/>
</g>
</svg>
